<svg width="287" height="87" viewBox="0 0 287 87" fill="none" xmlns="http://www.w3.org/2000/svg">
<path d="M66.0098 43.5C65.8109 46.8039 65.1063 50.0365 63.9337 53.0614C59.3222 65.295 46.8249 73.3331 34.5098 72.75C18.9396 72.5629 5.66497 58.6292 6.00977 43.5C6.00977 43.5 6.00977 43.5 6.00977 43.5C5.66497 28.3708 18.9396 14.4371 34.5098 14.25C46.8249 13.6669 59.3222 21.7051 63.9337 33.9386C65.1063 36.9635 65.8109 40.1961 66.0098 43.5C66.211 40.1967 65.8856 36.8376 65.018 33.5865C61.7204 20.4533 48.7966 9.93999 34.5098 9.75C16.5222 8.74693 -0.461385 25.0715 0.00976562 43.5C0.00976562 43.5 0.00976562 43.5 0.00976562 43.5C-0.461385 61.9285 16.5222 78.2531 34.5098 77.25C48.7966 77.06 61.7204 66.5467 65.018 53.4135C65.8856 50.1624 66.211 46.8033 66.0098 43.5ZM66.0098 43.5" fill="#0EA5E9"/>
<path d="M14.7096 43.1672C14.8089 45.209 15.2219 47.2142 15.9286 49.0969C18.701 56.7103 26.4495 61.8239 34.1766 61.5092C43.9415 61.4638 52.3641 52.7117 52.1436 43.1672C52.1436 43.1672 52.1436 43.1672 52.1436 43.1672C52.3641 33.6227 43.9415 24.8706 34.1766 24.8252C26.4495 24.5105 18.701 29.6241 15.9286 37.2375C15.2219 39.1202 14.8089 41.1254 14.7096 43.1672C14.6088 41.1257 14.8323 39.0572 15.3864 37.0614C17.5019 28.9982 25.4636 22.647 34.1766 22.5752C45.1502 22.0255 55.4273 31.973 55.1436 43.1672C55.4273 54.3613 45.1502 64.3089 34.1766 63.7592C25.4636 63.6874 17.5019 57.3362 15.3864 49.273C14.8323 47.2771 14.6088 45.2087 14.7096 43.1672ZM14.7096 43.1672" fill="#0EA5E9"/>
<path d="M131.894 17V18H109.694C106.894 18 104.661 18.7667 102.994 20.3C101.327 21.8333 100.494 23.7667 100.494 26.1V34.3C100.494 36.6333 100.961 38.2667 101.894 39.2C102.827 40.1333 104.061 40.7333 105.594 41L126.694 45.3C128.694 45.7 130.327 46.5667 131.594 47.9C132.927 49.2333 133.594 51.6333 133.594 55.1V60.9C133.594 63.8333 132.594 66.2667 130.594 68.2C128.594 70.0667 125.894 71 122.494 71H97.5941V70H122.494C125.561 70 127.994 69.1667 129.794 67.5C131.661 65.7667 132.594 63.5667 132.594 60.9V55.1C132.594 51.9667 132.027 49.8333 130.894 48.7C129.827 47.5 128.361 46.7 126.494 46.3L105.394 42C103.661 41.6667 102.227 41 101.094 40C100.027 38.9333 99.4941 37.0333 99.4941 34.3V26.1C99.4941 23.4333 100.427 21.2667 102.294 19.6C104.161 17.8667 106.627 17 109.694 17H131.894ZM200.033 70V71H166.333V17H200.033V18H167.333V43.1H191.933V44.1H167.333V70H200.033ZM230.963 49.7V52.8H269.963V49.7C269.963 47.9 269.796 46.2333 269.463 44.7C269.196 43.1667 268.83 41.7333 268.363 40.4L261.463 24.1C260.73 22.3667 259.963 20.9333 259.163 19.8C258.363 18.6 257.03 18 255.163 18H245.363C243.363 18 241.963 18.6 241.163 19.8C240.363 20.9333 239.63 22.3333 238.963 24L232.563 40.4C232.096 41.7333 231.696 43.1667 231.363 44.7C231.096 46.2333 230.963 47.9 230.963 49.7ZM269.963 71V53.8H230.963V71H229.963V49.7C229.963 47.8333 230.096 46.1333 230.363 44.6C230.696 43 231.13 41.4667 231.663 40L238.063 23.6C238.796 21.7333 239.63 20.1667 240.563 18.9C241.496 17.6333 243.096 17 245.363 17H255.163C257.363 17 258.896 17.6333 259.763 18.9C260.696 20.1667 261.563 21.7667 262.363 23.7L269.263 40C269.796 41.4667 270.196 43 270.463 44.6C270.796 46.1333 270.963 47.8333 270.963 49.7V71H269.963Z" fill="#0EA5E9"/>
<path d="M131.894 17H134.394V14.5H131.894V17ZM131.894 18V20.5H134.394V18H131.894ZM101.894 39.2L103.662 37.4322V37.4322L101.894 39.2ZM105.594 41L106.093 38.5504L106.058 38.5431L106.022 38.537L105.594 41ZM126.694 45.3L126.195 47.7497L126.204 47.7515L126.694 45.3ZM131.594 47.9L129.782 49.6219L129.804 49.6451L129.826 49.6678L131.594 47.9ZM130.594 68.2L132.3 70.0276L132.316 70.0127L132.332 69.9975L130.594 68.2ZM97.5941 71H95.0941V73.5H97.5941V71ZM97.5941 70V67.5H95.0941V70H97.5941ZM129.794 67.5L131.493 69.3344L131.495 69.332L129.794 67.5ZM130.894 48.7L129.026 50.3609L129.074 50.4158L129.126 50.4678L130.894 48.7ZM126.494 46.3L127.018 43.8555L127.006 43.8529L126.993 43.8503L126.494 46.3ZM105.394 42L105.893 39.5503L105.88 39.5476L105.866 39.545L105.394 42ZM101.094 40L99.3264 41.7678L99.3816 41.823L99.4401 41.8746L101.094 40ZM102.294 19.6L103.959 21.4648L103.977 21.4486L103.995 21.432L102.294 19.6ZM131.894 17H129.394V18H131.894H134.394V17H131.894ZM131.894 18V15.5H109.694V18V20.5H131.894V18ZM109.694 18V15.5C106.422 15.5 103.532 16.4078 101.301 18.4602L102.994 20.3L104.687 22.1398C105.789 21.1255 107.366 20.5 109.694 20.5V18ZM102.994 20.3L101.301 18.4602C99.1029 20.4829 97.9941 23.0915 97.9941 26.1H100.494H102.994C102.994 24.4418 103.552 23.1837 104.687 22.1398L102.994 20.3ZM100.494 26.1H97.9941V34.3H100.494H102.994V26.1H100.494ZM100.494 34.3H97.9941C97.9941 36.8276 98.4732 39.3146 100.126 40.9678L101.894 39.2L103.662 37.4322C103.448 37.2187 102.994 36.4391 102.994 34.3H100.494ZM101.894 39.2L100.126 40.9678C101.486 42.327 103.218 43.1243 105.166 43.463L105.594 41L106.022 38.537C104.903 38.3423 104.169 37.9397 103.662 37.4322L101.894 39.2ZM105.594 41L105.095 43.4496L126.195 47.7496L126.694 45.3L127.193 42.8503L106.093 38.5504L105.594 41ZM126.694 45.3L126.204 47.7515C127.756 48.0619 128.908 48.7027 129.782 49.6219L131.594 47.9L133.407 46.1781C131.747 44.4307 129.632 43.3381 127.184 42.8485L126.694 45.3ZM131.594 47.9L129.826 49.6678C130.427 50.268 131.094 51.7937 131.094 55.1H133.594H136.094C136.094 51.473 135.428 48.1987 133.362 46.1322L131.594 47.9ZM133.594 55.1H131.094V60.9H133.594H136.094V55.1H133.594ZM133.594 60.9H131.094C131.094 63.1969 130.34 64.9682 128.857 66.4025L130.594 68.2L132.332 69.9975C134.848 67.5651 136.094 64.4698 136.094 60.9H133.594ZM130.594 68.2L128.888 66.3724C127.457 67.7084 125.422 68.5 122.494 68.5V71V73.5C126.366 73.5 129.731 72.4249 132.3 70.0276L130.594 68.2ZM122.494 71V68.5H97.5941V71V73.5H122.494V71ZM97.5941 71H100.094V70H97.5941H95.0941V71H97.5941ZM97.5941 70V72.5H122.494V70V67.5H97.5941V70ZM122.494 70V72.5C126.026 72.5 129.123 71.5289 131.493 69.3344L129.794 67.5L128.096 65.6656C126.866 66.8044 125.095 67.5 122.494 67.5V70ZM129.794 67.5L131.495 69.332C133.898 67.1012 135.094 64.2251 135.094 60.9H132.594H130.094C130.094 62.9082 129.424 64.4321 128.093 65.668L129.794 67.5ZM132.594 60.9H135.094V55.1H132.594H130.094V60.9H132.594ZM132.594 55.1H135.094C135.094 51.8593 134.548 48.8184 132.662 46.9322L130.894 48.7L129.126 50.4678C129.507 50.8482 130.094 52.074 130.094 55.1H132.594ZM130.894 48.7L132.763 47.0391C131.28 45.3705 129.304 44.3453 127.018 43.8555L126.494 46.3L125.97 48.7445C127.418 49.0547 128.375 49.6294 129.026 50.3609L130.894 48.7ZM126.494 46.3L126.993 43.8503L105.893 39.5503L105.394 42L104.895 44.4496L125.995 48.7496L126.494 46.3ZM105.394 42L105.866 39.545C104.497 39.2817 103.494 38.7834 102.748 38.1254L101.094 40L99.4401 41.8746C100.961 43.2166 102.824 44.0516 104.922 44.455L105.394 42ZM101.094 40L102.862 38.2322C102.523 37.8938 101.994 36.8604 101.994 34.3H99.4941H96.9941C96.9941 37.2063 97.5315 39.9729 99.3264 41.7678L101.094 40ZM99.4941 34.3H101.994V26.1H99.4941H96.9941V34.3H99.4941ZM99.4941 26.1H101.994C101.994 24.0927 102.662 22.6231 103.959 21.4648L102.294 19.6L100.629 17.7352C98.1931 19.9102 96.9941 22.7739 96.9941 26.1H99.4941ZM102.294 19.6L103.995 21.432C105.309 20.2124 107.122 19.5 109.694 19.5V17V14.5C106.132 14.5 103.013 15.5209 100.593 17.768L102.294 19.6ZM109.694 17V19.5H131.894V17V14.5H109.694V17ZM200.033 70H202.533V67.5H200.033V70ZM200.033 71V73.5H202.533V71H200.033ZM166.333 71H163.833V73.5H166.333V71ZM166.333 17V14.5H163.833V17H166.333ZM200.033 17H202.533V14.5H200.033V17ZM200.033 18V20.5H202.533V18H200.033ZM167.333 18V15.5H164.833V18H167.333ZM167.333 43.1H164.833V45.6H167.333V43.1ZM191.933 43.1H194.433V40.6H191.933V43.1ZM191.933 44.1V46.6H194.433V44.1H191.933ZM167.333 44.1V41.6H164.833V44.1H167.333ZM167.333 70H164.833V72.5H167.333V70ZM200.033 70H197.533V71H200.033H202.533V70H200.033ZM200.033 71V68.5H166.333V71V73.5H200.033V71ZM166.333 71H168.833V17H166.333H163.833V71H166.333ZM166.333 17V19.5H200.033V17V14.5H166.333V17ZM200.033 17H197.533V18H200.033H202.533V17H200.033ZM200.033 18V15.5H167.333V18V20.5H200.033V18ZM167.333 18H164.833V43.1H167.333H169.833V18H167.333ZM167.333 43.1V45.6H191.933V43.1V40.6H167.333V43.1ZM191.933 43.1H189.433V44.1H191.933H194.433V43.1H191.933ZM191.933 44.1V41.6H167.333V44.1V46.6H191.933V44.1ZM167.333 44.1H164.833V70H167.333H169.833V44.1H167.333ZM167.333 70V72.5H200.033V70V67.5H167.333V70ZM230.963 52.8H228.463V55.3H230.963V52.8ZM269.963 52.8V55.3H272.463V52.8H269.963ZM269.463 44.7L267 45.1284L267.009 45.1799L267.02 45.2311L269.463 44.7ZM268.363 40.4L270.723 39.5741L270.696 39.4989L270.665 39.4254L268.363 40.4ZM261.463 24.1L259.16 25.0741L259.161 25.0746L261.463 24.1ZM259.163 19.8L257.083 21.1867L257.101 21.2145L257.12 21.2417L259.163 19.8ZM241.163 19.8L243.205 21.2417L243.225 21.2145L243.243 21.1867L241.163 19.8ZM238.963 24L236.642 23.0715L236.638 23.0813L236.634 23.0911L238.963 24ZM232.563 40.4L230.234 39.4911L230.218 39.5324L230.203 39.5741L232.563 40.4ZM231.363 44.7L228.92 44.1689L228.909 44.2201L228.9 44.2716L231.363 44.7ZM269.963 71H267.463V73.5H269.963V71ZM269.963 53.8H272.463V51.3H269.963V53.8ZM230.963 53.8V51.3H228.463V53.8H230.963ZM230.963 71V73.5H233.463V71H230.963ZM229.963 71H227.463V73.5H229.963V71ZM230.363 44.6L227.915 44.0901L227.907 44.1308L227.9 44.1716L230.363 44.6ZM231.663 40L229.334 39.0911L229.323 39.1183L229.313 39.1456L231.663 40ZM238.063 23.6L235.736 22.6859L235.734 22.6911L238.063 23.6ZM240.563 18.9L242.576 20.383V20.383L240.563 18.9ZM259.763 18.9L257.7 20.3117L257.724 20.3478L257.75 20.383L259.763 18.9ZM262.363 23.7L260.053 24.6559L260.057 24.6652L260.061 24.6746L262.363 23.7ZM269.263 40L271.612 39.1456L271.59 39.0849L271.565 39.0254L269.263 40ZM270.463 44.6L267.997 45.011L268.007 45.0713L268.02 45.1311L270.463 44.6ZM270.963 71V73.5H273.463V71H270.963ZM230.963 49.7H228.463V52.8H230.963H233.463V49.7H230.963ZM230.963 52.8V55.3H269.963V52.8V50.3H230.963V52.8ZM269.963 52.8H272.463V49.7H269.963H267.463V52.8H269.963ZM269.963 49.7H272.463C272.463 47.747 272.282 45.9 271.906 44.1689L269.463 44.7L267.02 45.2311C267.31 46.5666 267.463 48.053 267.463 49.7H269.963ZM269.463 44.7L271.926 44.2716C271.638 42.6167 271.239 41.0492 270.723 39.5741L268.363 40.4L266.003 41.2259C266.42 42.4175 266.754 43.7167 267 45.1284L269.463 44.7ZM268.363 40.4L270.665 39.4254L263.765 23.1254L261.463 24.1L259.161 25.0746L266.061 41.3746L268.363 40.4ZM261.463 24.1L263.765 23.1259C262.985 21.2819 262.138 19.679 261.205 18.3583L259.163 19.8L257.12 21.2417C257.788 22.1877 258.474 23.4514 259.16 25.0741L261.463 24.1ZM259.163 19.8L261.243 18.4132C259.845 16.3161 257.59 15.5 255.163 15.5V18V20.5C256.469 20.5 256.881 20.8839 257.083 21.1867L259.163 19.8ZM255.163 18V15.5H245.363V18V20.5H255.163V18ZM245.363 18V15.5C242.88 15.5 240.513 16.2679 239.083 18.4132L241.163 19.8L243.243 21.1867C243.413 20.932 243.846 20.5 245.363 20.5V18ZM241.163 19.8L239.12 18.3583C238.181 19.6899 237.361 21.2734 236.642 23.0715L238.963 24L241.284 24.9285C241.898 23.3932 242.545 22.1768 243.205 21.2417L241.163 19.8ZM238.963 24L236.634 23.0911L230.234 39.4911L232.563 40.4L234.892 41.3089L241.292 24.9089L238.963 24ZM232.563 40.4L230.203 39.5741C229.699 41.0138 229.273 42.5465 228.92 44.1689L231.363 44.7L233.806 45.2311C234.12 43.7868 234.493 42.4528 234.923 41.2259L232.563 40.4ZM231.363 44.7L228.9 44.2716C228.605 45.9663 228.463 47.7781 228.463 49.7H230.963H233.463C233.463 48.0219 233.587 46.5003 233.826 45.1284L231.363 44.7ZM269.963 71H272.463V53.8H269.963H267.463V71H269.963ZM269.963 53.8V51.3H230.963V53.8V56.3H269.963V53.8ZM230.963 53.8H228.463V71H230.963H233.463V53.8H230.963ZM230.963 71V68.5H229.963V71V73.5H230.963V71ZM229.963 71H232.463V49.7H229.963H227.463V71H229.963ZM229.963 49.7H232.463C232.463 47.9495 232.588 46.3956 232.826 45.0284L230.363 44.6L227.9 44.1716C227.604 45.8711 227.463 47.7171 227.463 49.7H229.963ZM230.363 44.6L232.81 45.1099C233.12 43.6214 233.522 42.2035 234.012 40.8544L231.663 40L229.313 39.1456C228.737 40.7298 228.272 42.3786 227.915 44.0901L230.363 44.6ZM231.663 40L233.992 40.9089L240.392 24.5089L238.063 23.6L235.734 22.6911L229.334 39.0911L231.663 40ZM238.063 23.6L240.39 24.5141C241.064 22.7974 241.801 21.4343 242.576 20.383L240.563 18.9L238.55 17.417C237.458 18.8991 236.528 20.6692 235.736 22.6859L238.063 23.6ZM240.563 18.9L242.576 20.383C242.855 20.0044 243.521 19.5 245.363 19.5V17V14.5C242.672 14.5 240.138 15.2623 238.55 17.417L240.563 18.9ZM245.363 17V19.5H255.163V17V14.5H245.363V17ZM255.163 17V19.5C256.921 19.5 257.48 19.9912 257.7 20.3117L259.763 18.9L261.826 17.4883C260.312 15.2755 257.804 14.5 255.163 14.5V17ZM259.763 18.9L257.75 20.383C258.532 21.4433 259.307 22.8523 260.053 24.6559L262.363 23.7L264.673 22.7441C263.819 20.681 262.861 18.89 261.776 17.417L259.763 18.9ZM262.363 23.7L260.061 24.6746L266.961 40.9746L269.263 40L271.565 39.0254L264.665 22.7254L262.363 23.7ZM269.263 40L266.913 40.8544C267.392 42.1716 267.754 43.5561 267.997 45.011L270.463 44.6L272.929 44.189C272.638 42.4439 272.2 40.7618 271.612 39.1456L269.263 40ZM270.463 44.6L268.02 45.1311C268.309 46.4608 268.463 47.9793 268.463 49.7H270.963H273.463C273.463 47.6873 273.283 45.8059 272.906 44.0689L270.463 44.6ZM270.963 49.7H268.463V71H270.963H273.463V49.7H270.963ZM270.963 71V68.5H269.963V71V73.5H270.963V71Z" fill="#0EA5E9"/>
</svg>
